<?xml version="1.0" encoding="UTF-8"?>
<svg xmlns="http://www.w3.org/2000/svg" xmlns:xlink="http://www.w3.org/1999/xlink" id="Capa_2" data-name="Capa 2" viewBox="0 0 1920 538.54">
  <defs>
    <style>
      .cls-1 {
        fill: url(#linear-gradient-2);
      }

      .cls-2 {
        fill: url(#linear-gradient-17);
      }

      .cls-3 {
        fill: url(#linear-gradient-15);
      }

      .cls-4 {
        fill: url(#linear-gradient-18);
      }

      .cls-5 {
        fill: url(#linear-gradient-40);
      }

      .cls-6 {
        fill: url(#linear-gradient-28);
      }

      .cls-7 {
        fill: url(#linear-gradient-14);
      }

      .cls-8 {
        fill: url(#linear-gradient-36);
      }

      .cls-9 {
        fill: url(#linear-gradient-20);
      }

      .cls-10 {
        fill: url(#linear-gradient-6);
      }

      .cls-11 {
        fill: url(#linear-gradient-35);
      }

      .cls-12 {
        fill: url(#linear-gradient-32);
      }

      .cls-13 {
        fill: url(#linear-gradient-11);
      }

      .cls-14 {
        fill: url(#linear-gradient-39);
      }

      .cls-15 {
        fill: url(#linear-gradient-10);
      }

      .cls-16 {
        fill: url(#linear-gradient-37);
      }

      .cls-17 {
        fill: url(#linear-gradient-16);
      }

      .cls-18 {
        fill: url(#linear-gradient-31);
      }

      .cls-19 {
        fill: url(#linear-gradient-41);
      }

      .cls-20 {
        fill: url(#linear-gradient-21);
      }

      .cls-21 {
        fill: url(#linear-gradient-25);
      }

      .cls-22 {
        fill: url(#linear-gradient-5);
      }

      .cls-23 {
        fill: url(#linear-gradient-34);
      }

      .cls-24 {
        fill: url(#linear-gradient-7);
      }

      .cls-25 {
        fill: url(#linear-gradient-24);
      }

      .cls-26 {
        fill: url(#linear-gradient-9);
      }

      .cls-27 {
        fill: url(#linear-gradient-22);
      }

      .cls-28 {
        fill: url(#linear-gradient-3);
      }

      .cls-29 {
        fill: url(#linear-gradient);
      }

      .cls-30 {
        fill: url(#linear-gradient-27);
      }

      .cls-31 {
        fill: url(#linear-gradient-33);
      }

      .cls-32 {
        fill: url(#linear-gradient-38);
      }

      .cls-33 {
        fill: url(#linear-gradient-29);
      }

      .cls-34 {
        fill: url(#linear-gradient-30);
      }

      .cls-35 {
        fill: url(#linear-gradient-23);
      }

      .cls-36 {
        fill: url(#linear-gradient-19);
      }

      .cls-37 {
        fill: url(#linear-gradient-4);
      }

      .cls-38 {
        fill: url(#linear-gradient-8);
      }

      .cls-39 {
        fill: url(#linear-gradient-12);
      }

      .cls-40 {
        fill: url(#linear-gradient-13);
      }

      .cls-41 {
        fill: url(#linear-gradient-26);
      }
    </style>
    <linearGradient id="linear-gradient" x1="741.86" y1="-509.94" x2="1790.34" y2="538.54" gradientUnits="userSpaceOnUse">
      <stop offset="0" stop-color="#a4664e"></stop>
      <stop offset=".06" stop-color="#ca9580"></stop>
      <stop offset=".11" stop-color="#e6b9a6"></stop>
      <stop offset=".15" stop-color="#f8cebe"></stop>
      <stop offset=".18" stop-color="#ffd7c7"></stop>
      <stop offset=".31" stop-color="#eab6a2"></stop>
      <stop offset=".43" stop-color="#dda28a"></stop>
      <stop offset=".5" stop-color="#d99b82"></stop>
      <stop offset=".58" stop-color="#edbba6"></stop>
      <stop offset=".65" stop-color="#facfbe"></stop>
      <stop offset=".69" stop-color="#ffd7c7"></stop>
      <stop offset=".78" stop-color="#eab6a2"></stop>
      <stop offset=".84" stop-color="#dda28a"></stop>
      <stop offset=".89" stop-color="#d99b82"></stop>
      <stop offset=".92" stop-color="#c3856d"></stop>
      <stop offset=".97" stop-color="#ac6e56"></stop>
      <stop offset="1" stop-color="#a4664e"></stop>
    </linearGradient>
    <linearGradient id="linear-gradient-2" x1="807.87" y1="-575.95" x2="1856.35" y2="472.53" xlink:href="#linear-gradient"></linearGradient>
    <linearGradient id="linear-gradient-3" x1="740.12" y1="-508.21" x2="1788.61" y2="540.28" xlink:href="#linear-gradient"></linearGradient>
    <linearGradient id="linear-gradient-4" x1="492.05" y1="-260.13" x2="1540.53" y2="788.35" xlink:href="#linear-gradient"></linearGradient>
    <linearGradient id="linear-gradient-5" x1="492.04" y1="-260.12" x2="1540.53" y2="788.36" xlink:href="#linear-gradient"></linearGradient>
    <linearGradient id="linear-gradient-6" x1="579.38" y1="-347.46" x2="1627.86" y2="701.02" xlink:href="#linear-gradient"></linearGradient>
    <linearGradient id="linear-gradient-7" x1="198.47" y1="33.45" x2="1246.95" y2="1081.94" xlink:href="#linear-gradient"></linearGradient>
    <linearGradient id="linear-gradient-8" x1="55.82" y1="176.09" x2="1104.31" y2="1224.58" xlink:href="#linear-gradient"></linearGradient>
    <linearGradient id="linear-gradient-9" x1="55.82" y1="176.09" x2="1104.31" y2="1224.58" gradientTransform="translate(221.51 104.81) rotate(84.82)" xlink:href="#linear-gradient"></linearGradient>
    <linearGradient id="linear-gradient-10" x1="198.47" y1="33.45" x2="1246.95" y2="1081.94" gradientTransform="translate(17.07 -29.88) rotate(5.18)" xlink:href="#linear-gradient"></linearGradient>
    <linearGradient id="linear-gradient-11" x1="161.63" y1="70.28" x2="1210.12" y2="1118.77" xlink:href="#linear-gradient"></linearGradient>
    <linearGradient id="linear-gradient-12" x1="517.71" y1="-285.79" x2="1566.19" y2="762.69" xlink:href="#linear-gradient"></linearGradient>
    <linearGradient id="linear-gradient-13" x1="322.46" y1="-90.54" x2="1370.95" y2="957.94" xlink:href="#linear-gradient"></linearGradient>
    <linearGradient id="linear-gradient-14" x1="437.81" y1="-205.89" x2="1486.29" y2="842.59" xlink:href="#linear-gradient"></linearGradient>
    <linearGradient id="linear-gradient-15" x1="393.43" y1="-161.51" x2="1441.91" y2="886.97" xlink:href="#linear-gradient"></linearGradient>
    <linearGradient id="linear-gradient-16" x1="393.43" y1="-161.51" x2="1441.91" y2="886.97" gradientTransform="translate(18.66 -65.1) rotate(5.18)" xlink:href="#linear-gradient"></linearGradient>
    <linearGradient id="linear-gradient-17" x1="315.55" y1="-83.63" x2="1364.03" y2="964.85" xlink:href="#linear-gradient"></linearGradient>
    <linearGradient id="linear-gradient-18" x1="315.55" y1="-83.63" x2="1364.03" y2="964.85" gradientTransform="translate(694.05 -412.52) rotate(84.82)" xlink:href="#linear-gradient"></linearGradient>
    <linearGradient id="linear-gradient-19" x1="393.43" y1="-161.51" x2="1441.91" y2="886.97" gradientTransform="translate(18.66 -65.1) rotate(5.18)" xlink:href="#linear-gradient"></linearGradient>
    <linearGradient id="linear-gradient-20" x1="614.78" y1="-382.86" x2="1663.26" y2="665.62" gradientTransform="translate(1147.25 -1004.41) rotate(84.82)" xlink:href="#linear-gradient"></linearGradient>
    <linearGradient id="linear-gradient-21" x1="532.56" y1="-300.65" x2="1581.05" y2="747.84" gradientTransform="translate(15.28 -86.1) rotate(5.18)" xlink:href="#linear-gradient"></linearGradient>
    <linearGradient id="linear-gradient-22" x1="891.47" y1="-659.56" x2="1939.96" y2="388.93" xlink:href="#linear-gradient"></linearGradient>
    <linearGradient id="linear-gradient-23" x1="1006.82" y1="-774.91" x2="2055.31" y2="273.58" xlink:href="#linear-gradient"></linearGradient>
    <linearGradient id="linear-gradient-24" x1="962.44" y1="-730.52" x2="2010.92" y2="317.96" xlink:href="#linear-gradient"></linearGradient>
    <linearGradient id="linear-gradient-25" x1="962.44" y1="-730.52" x2="2010.92" y2="317.96" gradientTransform="translate(23.32 -167.89) rotate(5.18)" xlink:href="#linear-gradient"></linearGradient>
    <linearGradient id="linear-gradient-26" x1="884.56" y1="-652.64" x2="1933.04" y2="395.84" xlink:href="#linear-gradient"></linearGradient>
    <linearGradient id="linear-gradient-27" x1="884.56" y1="-652.64" x2="1933.05" y2="395.84" gradientTransform="translate(1729.29 -1545.9) rotate(84.82)" xlink:href="#linear-gradient"></linearGradient>
    <linearGradient id="linear-gradient-28" x1="962.44" y1="-730.52" x2="2010.92" y2="317.96" gradientTransform="translate(23.32 -167.89) rotate(5.18)" xlink:href="#linear-gradient"></linearGradient>
    <linearGradient id="linear-gradient-29" x1="157.68" y1="74.24" x2="1206.16" y2="1122.72" xlink:href="#linear-gradient"></linearGradient>
    <linearGradient id="linear-gradient-30" x1="182.13" y1="49.78" x2="1230.62" y2="1098.27" xlink:href="#linear-gradient"></linearGradient>
    <linearGradient id="linear-gradient-31" x1="209.54" y1="22.38" x2="1258.02" y2="1070.86" xlink:href="#linear-gradient"></linearGradient>
    <linearGradient id="linear-gradient-32" x1="236.86" y1="-4.94" x2="1285.35" y2="1043.54" xlink:href="#linear-gradient"></linearGradient>
    <linearGradient id="linear-gradient-33" x1="268.45" y1="-36.53" x2="1316.93" y2="1011.95" xlink:href="#linear-gradient"></linearGradient>
    <linearGradient id="linear-gradient-34" x1="351.95" y1="-120.04" x2="1400.44" y2="928.45" xlink:href="#linear-gradient"></linearGradient>
    <linearGradient id="linear-gradient-35" x1="381.78" y1="-149.86" x2="1430.26" y2="898.62" xlink:href="#linear-gradient"></linearGradient>
    <linearGradient id="linear-gradient-36" x1="410.15" y1="-178.23" x2="1458.63" y2="870.26" xlink:href="#linear-gradient"></linearGradient>
    <linearGradient id="linear-gradient-37" x1="436.07" y1="-204.15" x2="1484.55" y2="844.34" xlink:href="#linear-gradient"></linearGradient>
    <linearGradient id="linear-gradient-38" x1="468.26" y1="-236.34" x2="1516.74" y2="812.14" xlink:href="#linear-gradient"></linearGradient>
    <linearGradient id="linear-gradient-39" x1="499.92" y1="-268" x2="1548.4" y2="780.48" xlink:href="#linear-gradient"></linearGradient>
    <linearGradient id="linear-gradient-40" x1="528.4" y1="-296.49" x2="1576.89" y2="752" xlink:href="#linear-gradient"></linearGradient>
    <linearGradient id="linear-gradient-41" x1="310.06" y1="-78.14" x2="1358.54" y2="970.34" gradientTransform="translate(621.18 -484.7) rotate(45)" xlink:href="#linear-gradient"></linearGradient>
  </defs>
  <g id="Capa_1-2" data-name="Capa 1">
    <g>
      <g>
        <path class="cls-29" d="m1463.06,347.31h-75.22V0h75.22v347.31Zm-61.36-13.86h47.5V13.86h-47.5v319.59Z"></path>
        <polygon class="cls-1" points="1556.71 83.27 1528.99 83.27 1528.99 27.72 1321.91 27.72 1321.91 83.27 1294.19 83.27 1294.19 0 1556.71 0 1556.71 83.27"></polygon>
        <rect class="cls-28" x="1418.52" y="13.86" width="13.86" height="326.52"></rect>
      </g>
      <path class="cls-37" d="m1078.83,347.31h-75.22v-116.54h75.22v116.54Zm-61.36-13.86h47.49v-88.81h-47.49v88.81Z"></path>
      <rect class="cls-22" x="1034.29" y="237.72" width="13.86" height="102.66"></rect>
      <path class="cls-10" d="m1149.66,251.58h-75.27L1097.2,0h75.28l-22.82,251.58Zm-60.1-13.86h47.44l20.31-223.86h-47.44l-20.3,223.86Zm-81.51,13.86h-75.28L909.96,0h75.27l22.82,251.58Zm-62.61-13.86h47.44l-20.31-223.86h-47.44l20.3,223.86Z"></path>
      <g>
        <g>
          <path class="cls-24" d="m392.05,347.31h-75.27L285.28,0h75.27l31.5,347.31Zm-62.61-13.86h47.44L347.89,13.86h-47.44l28.99,319.59Z"></path>
          <g>
            <path class="cls-38" d="m75.27,347.31H0L31.5,0h75.27l-31.5,347.31Zm-60.1-13.86h47.44L91.6,13.86h-47.44L15.17,333.45Z"></path>
            <rect class="cls-26" x="-114.03" y="166.72" width="334.82" height="13.86" transform="translate(-124.38 211.14) rotate(-84.82)"></rect>
          </g>
          <rect class="cls-15" x="331.74" y="6.25" width="13.86" height="334.82" transform="translate(-14.3 31.3) rotate(-5.18)"></rect>
        </g>
        <polygon class="cls-13" points="250.75 251.57 141.4 251.57 119.91 13.86 91.6 13.86 99.19 0 146.42 0 166.72 223.85 225.43 223.85 245.73 0 292.87 0 292.87 13.86 272.45 13.86 250.75 251.57"></polygon>
      </g>
      <rect class="cls-39" x="939.73" y="223.86" width="202.97" height="27.72"></rect>
      <g>
        <rect class="cls-40" x="597.85" y="223.85" width="105.72" height="27.72"></rect>
        <rect class="cls-7" x="617.86" width="65.56" height="13.86"></rect>
        <g>
          <path class="cls-3" d="m781.98,347.31h-75.28L675.2,0h75.28l31.5,347.31Zm-62.61-13.86h47.44l-28.99-319.59h-47.44l28.99,319.59Z"></path>
          <rect class="cls-17" x="721.66" y="6.25" width="13.86" height="334.82" transform="translate(-12.71 66.52) rotate(-5.18)"></rect>
        </g>
        <g>
          <path class="cls-2" d="m594.73,347.31h-75.27L550.95,0h75.27l-31.5,347.31Zm-60.1-13.86h47.44l28.99-319.59h-47.44l-28.99,319.59Z"></path>
          <rect class="cls-4" x="405.43" y="166.72" width="334.82" height="13.86" transform="translate(348.15 728.47) rotate(-84.82)"></rect>
        </g>
        <rect class="cls-36" x="721.66" y="6.25" width="13.86" height="334.82" transform="translate(-12.71 66.52) rotate(-5.18)"></rect>
      </g>
      <rect class="cls-9" x="1004.09" y="118.86" width="238.7" height="13.86" transform="translate(896.69 1233.28) rotate(-84.82)"></rect>
      <rect class="cls-20" x="952.07" y="6.44" width="13.86" height="238.7" transform="translate(-7.44 87.13) rotate(-5.18)"></rect>
      <rect class="cls-27" x="1735.88" y="223.85" width="105.72" height="27.72"></rect>
      <rect class="cls-35" x="1755.88" width="65.56" height="13.86"></rect>
      <g>
        <path class="cls-25" d="m1920,347.31h-75.28L1813.23,0h75.27l31.5,347.31Zm-62.61-13.86h47.44l-28.99-319.59h-47.44l28.98,319.59Z"></path>
        <rect class="cls-21" x="1859.68" y="6.25" width="13.86" height="334.82" transform="translate(-8.06 169.31) rotate(-5.18)"></rect>
      </g>
      <g>
        <path class="cls-41" d="m1732.75,347.31h-75.28L1688.97,0h75.27l-31.49,347.31Zm-60.1-13.86h47.44l28.98-319.59h-47.44l-28.99,319.59Z"></path>
        <rect class="cls-30" x="1543.45" y="166.72" width="334.82" height="13.86" transform="translate(1383.4 1861.84) rotate(-84.82)"></rect>
      </g>
      <rect class="cls-6" x="1859.68" y="6.25" width="13.86" height="334.82" transform="translate(-8.06 169.31) rotate(-5.18)"></rect>
      <g>
        <g>
          <path class="cls-33" d="m581.8,517.81c0,3.28,1.65,5.29,6.51,5.29s6.27-2.01,6.27-5.29v-30.32c0-.85.31-1.22,1.1-1.22h3.71c.85,0,1.16.37,1.16,1.22v31.29c0,4.99-2.56,9.38-12.24,9.38s-12.36-4.38-12.36-9.38v-3.11c0-.85.31-1.22,1.16-1.22h3.59c.85,0,1.1.36,1.1,1.22v2.13Z"></path>
          <path class="cls-34" d="m647.35,486.28c.79,0,1.22.37,1.46,1.16l11.81,39.08c.24.73-.06,1.16-.91,1.16h-3.84c-.79,0-1.15-.43-1.34-1.16l-2.86-9.43h-12.85l-2.8,9.43c-.18.73-.55,1.16-1.34,1.16h-3.53c-.79,0-1.09-.43-.85-1.16l11.81-39.08c.24-.79.67-1.16,1.46-1.16h3.78Zm-.37,14.98c-.73-2.25-1.58-8.22-1.64-8.89-.12.55-.91,6.15-1.7,8.77l-3.47,11.2h10.23l-3.41-11.08Z"></path>
          <path class="cls-18" d="m697.08,526.46c0,.85-.24,1.22-1.1,1.22h-3.71c-.79,0-1.1-.36-1.1-1.22v-38.96c0-.85.31-1.22,1.1-1.22h3.71c.85,0,1.1.37,1.1,1.22v38.96Z"></path>
          <path class="cls-12" d="m766.16,526.51c0,.79-.3,1.16-1.1,1.16h-3.59c-.79,0-1.1-.36-1.1-1.16v-27.94c-.12.31-.91,3.11-1.46,4.51l-7.06,17.11c-.3.79-.79,1.22-1.52,1.22h-3.16c-.79,0-1.16-.49-1.46-1.22l-7.55-17.84c-.61-1.34-1.1-3.47-1.16-3.65v27.82c0,.79-.31,1.16-1.1,1.16h-3.41c-.79,0-1.1-.36-1.1-1.16v-39.08c0-.79.31-1.16,1.1-1.16h3.41c.55,0,.85.24,1.03.67l10.53,24.47c.43,1.03,1.22,3.41,1.28,3.65.06-.24.91-2.56,1.34-3.59l10.35-24.65c.18-.43.49-.55,1.03-.55h3.59c.79,0,1.1.37,1.1,1.16v39.08Z"></path>
          <path class="cls-31" d="m801.52,527.67c-.79,0-1.1-.36-1.1-1.22v-38.96c0-.85.31-1.22,1.1-1.22h20.82c.79,0,1.15.31,1.15,1.16v2.74c0,.85-.36,1.16-1.15,1.16h-16.01v12.3h14.91c.85,0,1.22.31,1.22,1.16v2.62c0,.79-.36,1.15-1.22,1.15h-14.91v14.06h16.68c.79,0,1.15.24,1.15,1.1v2.8c0,.85-.36,1.16-1.15,1.16h-21.49Z"></path>
          <path class="cls-23" d="m973.83,512.27v14.19c0,.85-.24,1.22-1.1,1.22h-3.71c-.79,0-1.1-.36-1.1-1.22v-38.96c0-.85.31-1.22,1.1-1.22h12.36c10.47,0,13.82,4.38,13.82,9.38v7.24c0,4.99-3.35,9.38-13.82,9.38h-7.55Zm0-20.94v15.89h7.55c5.48,0,7.91-2.01,7.91-5.29v-5.3c0-3.28-2.44-5.29-7.91-5.29h-7.55Z"></path>
          <path class="cls-11" d="m1028.18,527.67c-.79,0-1.1-.36-1.1-1.22v-38.96c0-.85.31-1.22,1.1-1.22h20.82c.79,0,1.15.31,1.15,1.16v2.74c0,.85-.36,1.16-1.15,1.16h-16.01v12.3h14.91c.85,0,1.22.31,1.22,1.16v2.62c0,.79-.36,1.15-1.22,1.15h-14.91v14.06h16.68c.79,0,1.15.24,1.15,1.1v2.8c0,.85-.36,1.16-1.15,1.16h-21.49Z"></path>
          <path class="cls-8" d="m1102.99,495.96c0-3.29-2.01-5.18-7.37-5.18s-7.37,1.89-7.37,5.18v1.22c0,2.8,1.82,3.59,3.1,4.08l11.08,4.2c3.65,1.4,6.7,3.77,6.7,8.28v5.05c0,4.99-3.47,9.38-13.64,9.38s-13.69-4.38-13.69-9.38v-3.53c0-.85.36-1.22,1.15-1.22h3.59c.79,0,1.1.36,1.1,1.22v2.74c0,3.29,2.31,5.17,7.79,5.17s7.85-1.89,7.85-5.17v-2.86c0-3.04-2.74-4.08-5.11-4.99l-10.29-3.96c-2.68-1.03-5.42-3.77-5.42-7.55v-3.47c0-4.99,3.17-9.37,13.09-9.37s13.21,4.38,13.21,9.37v2.68c0,.79-.31,1.15-1.1,1.15h-3.59c-.85,0-1.1-.36-1.1-1.15v-1.89Z"></path>
          <path class="cls-16" d="m1155.21,486.28c.79,0,1.22.37,1.46,1.16l11.81,39.08c.24.73-.06,1.16-.91,1.16h-3.84c-.79,0-1.15-.43-1.34-1.16l-2.86-9.43h-12.85l-2.8,9.43c-.18.73-.55,1.16-1.34,1.16h-3.53c-.79,0-1.09-.43-.85-1.16l11.81-39.08c.24-.79.67-1.16,1.46-1.16h3.78Zm-.37,14.98c-.73-2.25-1.58-8.22-1.64-8.89-.12.55-.91,6.15-1.7,8.77l-3.47,11.2h10.23l-3.41-11.08Z"></path>
          <path class="cls-32" d="m1225.45,518.78c0,4.08-2.31,7.73-8.83,8.95l7.49,6.7c.61.55.67,1.1.12,1.64l-1.89,2.07c-.43.48-1.03.55-1.58.06l-10.9-10.1c-9.13-.43-12.11-4.57-12.11-9.31v-23.62c0-4.99,3.41-9.37,13.82-9.37s13.88,4.38,13.88,9.37v23.62Zm-21.73-.85c0,3.35,2.44,5.3,7.85,5.3s7.92-1.95,7.92-5.3v-21.92c0-3.35-2.44-5.29-7.92-5.29s-7.85,1.95-7.85,5.29v21.92Z"></path>
          <path class="cls-14" d="m1264.64,517.81c0,3.28,2.44,5.29,7.85,5.29s7.97-2.01,7.97-5.29v-30.32c0-.85.31-1.22,1.1-1.22h3.71c.85,0,1.1.37,1.1,1.22v31.29c0,4.99-3.41,9.38-13.88,9.38s-13.82-4.38-13.82-9.38v-31.29c0-.85.36-1.22,1.15-1.22h3.71c.79,0,1.1.37,1.1,1.22v30.32Z"></path>
          <path class="cls-5" d="m1321.43,527.67c-.79,0-1.1-.36-1.1-1.22v-38.96c0-.85.31-1.22,1.1-1.22h20.82c.79,0,1.15.31,1.15,1.16v2.74c0,.85-.36,1.16-1.15,1.16h-16.01v12.3h14.91c.85,0,1.22.31,1.22,1.16v2.62c0,.79-.36,1.15-1.22,1.15h-14.91v14.06h16.68c.79,0,1.15.24,1.15,1.1v2.8c0,.85-.36,1.16-1.15,1.16h-21.49Z"></path>
        </g>
        <rect class="cls-19" x="887.69" y="499.49" width="15.97" height="15.97" transform="translate(-96.5 781.98) rotate(-45)"></rect>
      </g>
    </g>
  </g>
</svg>
